<?xml version="1.0" encoding="iso-8859-1"?>
<!-- Generator: Adobe Illustrator 19.0.0, SVG Export Plug-In . SVG Version: 6.00 Build 0)  -->
<svg version="1.1" id="Capa_1" xmlns="http://www.w3.org/2000/svg" xmlns:xlink="http://www.w3.org/1999/xlink" x="0px" y="0px"
	 viewBox="0 0 512 512" style="enable-background:new 0 0 512 512;" xml:space="preserve">
<path style="fill:#B88158;" d="M66.828,28.175C29.979,28.175,0,58.196,0,95.097s29.979,66.922,66.828,66.922
	c36.85,0,66.829-30.021,66.829-66.922S103.678,28.175,66.828,28.175z"/>
<path style="fill:#946643;" d="M445.172,28.175c-36.85,0-66.829,30.021-66.829,66.922s29.979,66.922,66.829,66.922
	c36.849,0,66.828-30.021,66.828-66.922S482.021,28.175,445.172,28.175z"/>
<path style="fill:#B88158;" d="M482,217.044c0-92.353-74.867-167.221-167.221-167.221H196.221C103.867,49.823,29,124.69,29,217.044
	v99.559c0,92.353,74.867,167.221,167.221,167.221H314.78c92.353,0,167.221-74.867,167.221-167.221L482,217.044L482,217.044z"/>
<path style="fill:#EBAE7F;" d="M256,49.823h-59.779C103.867,49.823,29,124.69,29,217.044v99.559
	c0,92.354,74.867,167.221,167.221,167.221H256V49.823z"/>
<path style="fill:#946643;" d="M256,236.189c-63.184,0-114.588,51.484-114.588,114.768S192.816,465.725,256,465.725
	s114.588-51.484,114.588-114.768S319.184,236.189,256,236.189z"/>
<path style="fill:#B88158;" d="M256,236.189c-63.184,0-114.588,51.484-114.588,114.768S192.816,465.725,256,465.725V236.189z"/>
<path style="fill:#755037;" d="M311.184,319.822c-5.458-13.155-17.607-21.772-31.701-22.487c-0.693-0.035-1.391-0.054-2.092-0.054
	c-7.675,0-15.053,2.151-21.391,6.059c-6.338-3.907-13.716-6.059-21.391-6.059c-0.702,0-1.399,0.019-2.088,0.054
	c-14.098,0.715-26.247,9.332-31.705,22.487c-5.58,13.449-3.021,28.487,6.676,39.247l0,0l25.267,28.035
	c5.925,6.573,14.396,10.343,23.241,10.343s17.316-3.77,23.241-10.344l25.267-28.034C314.206,348.31,316.764,333.271,311.184,319.822
	z"/>
<path style="fill:#946643;" d="M256,303.34c-6.338-3.907-13.716-6.059-21.391-6.059c-0.702,0-1.399,0.019-2.088,0.054
	c-14.098,0.715-26.247,9.332-31.705,22.487c-5.58,13.449-3.021,28.487,6.676,39.247l0,0l25.267,28.035
	c5.925,6.573,14.396,10.343,23.241,10.343L256,303.34L256,303.34z"/>
<path style="fill:#73788C;" d="M171,169.768c-8.284,0-15,6.716-15,15v28.853c0,8.284,6.716,15,15,15s15-6.716,15-15v-28.853
	C186,176.483,179.284,169.768,171,169.768z"/>
<path style="fill:#414B50;" d="M341,169.768c-8.284,0-15,6.716-15,15v28.853c0,8.284,6.716,15,15,15s15-6.716,15-15v-28.853
	C356,176.483,349.284,169.768,341,169.768z"/>
<g>
</g>
<g>
</g>
<g>
</g>
<g>
</g>
<g>
</g>
<g>
</g>
<g>
</g>
<g>
</g>
<g>
</g>
<g>
</g>
<g>
</g>
<g>
</g>
<g>
</g>
<g>
</g>
<g>
</g>
</svg>
